<?xml version="1.0" encoding="UTF-8"?>
<svg version="1.1" xmlns="http://www.w3.org/2000/svg" width="423" height="363">
<path d="M0 0 C139.59 0 279.18 0 423 0 C423 119.79 423 239.58 423 363 C283.41 363 143.82 363 0 363 C0 243.21 0 123.42 0 0 Z " fill="#FEFEFE" transform="translate(0,0)"/>
<path d="M0 0 C0.66 0 1.32 0 2 0 C3.3046875 1.58984375 3.3046875 1.58984375 4.875 3.9375 C5.49890625 4.85402344 6.1228125 5.77054688 6.765625 6.71484375 C7.50296875 7.79894531 8.2403125 8.88304687 9 10 C10.86419269 12.67431274 12.74385743 15.33759121 14.625 18 C15.13450195 18.72219727 15.64400391 19.44439453 16.16894531 20.18847656 C21.02987085 27.06703148 25.96342096 33.89220082 30.90234375 40.71484375 C34.42125579 45.57759654 37.93636741 50.44240091 41.35255432 55.37800598 C43.01154036 57.71943726 44.66799825 59.72791642 46.62313843 61.85842896 C56.19762234 72.55536584 55.29801623 83.84380875 54.9765625 97.5546875 C54.95787788 99.91119363 54.94365906 102.267739 54.9336853 104.6242981 C54.89576564 110.78360986 54.79776763 116.94050906 54.68664551 123.09887695 C54.58377556 129.4002215 54.5385549 135.70196146 54.48828125 142.00390625 C54.38149625 154.33716028 54.2058183 166.66800075 54 179 C41.13 179 28.26 179 15 179 C15 180.65 15 182.3 15 184 C5.76 184 -3.48 184 -13 184 C-13 182.35 -13 180.7 -13 179 C-25.87 179 -38.74 179 -52 179 C-52.18100968 165.22168206 -52.32766388 151.44415857 -52.41449738 137.6649189 C-52.45618121 131.26607074 -52.51268774 124.86808082 -52.60351562 118.46972656 C-52.69068043 112.29048144 -52.73832529 106.1120598 -52.75901794 99.93224716 C-52.77375686 97.57912106 -52.80253952 95.22603814 -52.84584045 92.87326431 C-53.21257995 72.11358562 -53.21257995 72.11358562 -48.14697266 65.75512695 C-46.78738076 64.47876278 -45.40638011 63.22461856 -44 62 C-42.91476117 60.54132275 -41.86389221 59.05570298 -40.8671875 57.53515625 C-40.37863281 56.808125 -39.89007813 56.08109375 -39.38671875 55.33203125 C-38.63841797 54.20861328 -38.63841797 54.20861328 -37.875 53.0625 C-33.39735626 46.42505163 -28.7864604 39.91814769 -24 33.5 C-18.5595204 26.20266767 -13.34472656 18.77918219 -8.26171875 11.22851562 C-2.77089695 3.09108948 -2.77089695 3.09108948 0 0 Z " fill="#814115" transform="translate(115,134)"/>
<path d="M0 0 C4.04804074 1.34934691 4.84023987 3.3437237 7.1875 6.875 C7.99627734 8.07627464 8.80619089 9.27678501 9.6171875 10.4765625 C10.0203418 11.07629883 10.42349609 11.67603516 10.83886719 12.29394531 C12.44387165 14.65218147 14.12261048 16.95203308 15.8125 19.25 C19.21846289 23.90188172 22.55536696 28.59890396 25.875 33.3125 C29.65337242 38.67623259 33.43772892 44.03529087 37.25 49.375 C37.85376465 50.22203491 37.85376465 50.22203491 38.46972656 51.08618164 C40.4240186 53.82147142 42.39487703 56.54287794 44.3984375 59.2421875 C45.13320312 60.23476562 45.86796875 61.22734375 46.625 62.25 C47.60339844 63.55710937 47.60339844 63.55710937 48.6015625 64.890625 C50 67 50 67 50 69 C17.33 69 -15.34 69 -49 69 C-45.04913662 63.07370492 -41.06759891 57.24675195 -36.875 51.5 C-32.5401532 45.52964334 -28.24223752 39.53651389 -24 33.5 C-18.69964038 25.96190723 -13.31666795 18.48565707 -7.91015625 11.0234375 C-5.25681951 7.36068875 -2.62471747 3.68330518 0 0 Z " fill="#A41C20" transform="translate(115,138)"/>
<path d="M0 0 C0.66 0 1.32 0 2 0 C3.3046875 1.58984375 3.3046875 1.58984375 4.875 3.9375 C5.49890625 4.85402344 6.1228125 5.77054688 6.765625 6.71484375 C7.50296875 7.79894531 8.2403125 8.88304687 9 10 C10.86419269 12.67431274 12.74385743 15.33759121 14.625 18 C15.13450195 18.72219727 15.64400391 19.44439453 16.16894531 20.18847656 C21.02987085 27.06703148 25.96342096 33.89220082 30.90234375 40.71484375 C34.42125579 45.57759654 37.93636741 50.44240091 41.35255432 55.37800598 C43.01154036 57.71943726 44.66799825 59.72791642 46.62313843 61.85842896 C56.19762234 72.55536584 55.29801623 83.84380875 54.9765625 97.5546875 C54.95787788 99.91119363 54.94365906 102.267739 54.9336853 104.6242981 C54.89576564 110.78360986 54.79776763 116.94050906 54.68664551 123.09887695 C54.58377556 129.4002215 54.5385549 135.70196146 54.48828125 142.00390625 C54.38149625 154.33716028 54.2058183 166.66800075 54 179 C41.13 179 28.26 179 15 179 C15 180.65 15 182.3 15 184 C5.76 184 -3.48 184 -13 184 C-13 182.35 -13 180.7 -13 179 C-25.87 179 -38.74 179 -52 179 C-52.18100968 165.22168206 -52.32766388 151.44415857 -52.41449738 137.6649189 C-52.45618121 131.26607074 -52.51268774 124.86808082 -52.60351562 118.46972656 C-52.69068043 112.29048144 -52.73832529 106.1120598 -52.75901794 99.93224716 C-52.77375686 97.57912106 -52.80253952 95.22603814 -52.84584045 92.87326431 C-53.21257995 72.11358562 -53.21257995 72.11358562 -48.14697266 65.75512695 C-46.78738076 64.47876278 -45.40638011 63.22461856 -44 62 C-42.91476117 60.54132275 -41.86389221 59.05570298 -40.8671875 57.53515625 C-40.37863281 56.808125 -39.89007813 56.08109375 -39.38671875 55.33203125 C-38.63841797 54.20861328 -38.63841797 54.20861328 -37.875 53.0625 C-33.39735626 46.42505163 -28.7864604 39.91814769 -24 33.5 C-18.5595204 26.20266767 -13.34472656 18.77918219 -8.26171875 11.22851562 C-2.77089695 3.09108948 -2.77089695 3.09108948 0 0 Z M0 4 C-1.71368092 6.10985447 -3.303222 8.22466699 -4.875 10.4375 C-5.3611377 11.11127686 -5.84727539 11.78505371 -6.34814453 12.47924805 C-10.39720929 18.10740921 -14.38991858 23.77641098 -18.37646484 29.44897461 C-22.04304575 34.66300088 -25.75948808 39.83880751 -29.5 45 C-33.9494472 51.14367529 -38.36944309 57.30698107 -42.75 63.5 C-43.26369141 64.22445312 -43.77738281 64.94890625 -44.30664062 65.6953125 C-46.84086321 69.23214487 -46.84086321 69.23214487 -49 73 C-16.33 73 16.34 73 50 73 C48.18542645 68.46356611 46.08674096 65.13882383 43.1875 61.3125 C42.19589726 59.98230527 41.20504479 58.65155099 40.21484375 57.3203125 C39.43149658 56.27085449 39.43149658 56.27085449 38.63232422 55.20019531 C35.80375921 51.38759767 33.02699776 47.53773944 30.25 43.6875 C29.6936084 42.91672119 29.1372168 42.14594238 28.56396484 41.35180664 C25.25359586 36.75902906 21.97707618 32.14516323 18.74609375 27.49609375 C15.28229197 22.54448449 11.76233289 17.63157495 8.22949219 12.72900391 C7.35668308 11.50159444 6.49948381 10.26301804 5.65332031 9.01708984 C4.48292758 7.31123172 3.24628621 5.65122432 2 4 C1.34 4 0.68 4 0 4 Z M-50 75 C-50 108.66 -50 142.32 -50 177 C-38.45 177 -26.9 177 -15 177 C-15 173.7 -15 170.4 -15 167 C-13.68 167 -12.36 167 -11 167 C-11 149.51 -11 132.02 -11 114 C-3.08 114 4.84 114 13 114 C13 131.49 13 148.98 13 167 C14.32 167 15.64 167 17 167 C17 170.3 17 173.6 17 177 C28.55 177 40.1 177 52 177 C52 143.34 52 109.68 52 75 C18.34 75 -15.32 75 -50 75 Z " fill="#251C15" transform="translate(115,134)"/>
<path d="M0 0 C0.66 0 1.32 0 2 0 C3.3046875 1.58984375 3.3046875 1.58984375 4.875 3.9375 C5.49890625 4.85402344 6.1228125 5.77054688 6.765625 6.71484375 C7.50296875 7.79894531 8.2403125 8.88304687 9 10 C10.86419269 12.67431274 12.74385743 15.33759121 14.625 18 C15.13450195 18.72219727 15.64400391 19.44439453 16.16894531 20.18847656 C21.02987085 27.06703148 25.96342096 33.89220082 30.90234375 40.71484375 C34.42102307 45.57727495 37.93601912 50.44167794 41.35169983 55.37715149 C43.01319824 57.72218501 44.67229766 59.7324252 46.63082886 61.86611938 C56.18725716 72.53990425 55.21603762 83.6638342 54.7578125 97.3359375 C54.71664966 99.66997988 54.68001154 102.00410601 54.64767456 104.33828735 C54.55114904 110.43888497 54.39377417 116.53640209 54.2230835 122.63531494 C54.05940521 128.87596964 53.95413918 135.11759056 53.84375 141.359375 C53.61920906 153.57454693 53.33028107 165.78726126 53 178 C52.34 177.67 51.68 177.34 51 177 C51.33 143.34 51.66 109.68 52 75 C18.34 75 -15.32 75 -50 75 C-50 108.66 -50 142.32 -50 177 C-38.12 177 -26.24 177 -14 177 C-13.67 177.66 -13.34 178.32 -13 179 C-25.87 179 -38.74 179 -52 179 C-52.18100968 165.22168206 -52.32766388 151.44415857 -52.41449738 137.6649189 C-52.45618121 131.26607074 -52.51268774 124.86808082 -52.60351562 118.46972656 C-52.69068043 112.29048144 -52.73832529 106.1120598 -52.75901794 99.93224716 C-52.77375686 97.57912106 -52.80253952 95.22603814 -52.84584045 92.87326431 C-53.21257995 72.11358562 -53.21257995 72.11358562 -48.14697266 65.75512695 C-46.78738076 64.47876278 -45.40638011 63.22461856 -44 62 C-42.91476117 60.54132275 -41.86389221 59.05570298 -40.8671875 57.53515625 C-40.37863281 56.808125 -39.89007813 56.08109375 -39.38671875 55.33203125 C-38.63841797 54.20861328 -38.63841797 54.20861328 -37.875 53.0625 C-33.39735626 46.42505163 -28.7864604 39.91814769 -24 33.5 C-18.5595204 26.20266767 -13.34472656 18.77918219 -8.26171875 11.22851562 C-2.77089695 3.09108948 -2.77089695 3.09108948 0 0 Z M0 4 C-1.71368092 6.10985447 -3.303222 8.22466699 -4.875 10.4375 C-5.3611377 11.11127686 -5.84727539 11.78505371 -6.34814453 12.47924805 C-10.39720929 18.10740921 -14.38991858 23.77641098 -18.37646484 29.44897461 C-22.04304575 34.66300088 -25.75948808 39.83880751 -29.5 45 C-33.9494472 51.14367529 -38.36944309 57.30698107 -42.75 63.5 C-43.26369141 64.22445312 -43.77738281 64.94890625 -44.30664062 65.6953125 C-46.84086321 69.23214487 -46.84086321 69.23214487 -49 73 C-16.33 73 16.34 73 50 73 C48.18542645 68.46356611 46.08674096 65.13882383 43.1875 61.3125 C42.19589726 59.98230527 41.20504479 58.65155099 40.21484375 57.3203125 C39.43149658 56.27085449 39.43149658 56.27085449 38.63232422 55.20019531 C35.80375921 51.38759767 33.02699776 47.53773944 30.25 43.6875 C29.6936084 42.91672119 29.1372168 42.14594238 28.56396484 41.35180664 C25.25359586 36.75902906 21.97707618 32.14516323 18.74609375 27.49609375 C15.28229197 22.54448449 11.76233289 17.63157495 8.22949219 12.72900391 C7.35668308 11.50159444 6.49948381 10.26301804 5.65332031 9.01708984 C4.48292758 7.31123172 3.24628621 5.65122432 2 4 C1.34 4 0.68 4 0 4 Z " fill="#272121" transform="translate(115,134)"/>
<path d="M0 0 C5.94 0 11.88 0 18 0 C18 16.17 18 32.34 18 49 C12.06 49 6.12 49 0 49 C0 32.83 0 16.66 0 0 Z " fill="#624222" transform="translate(107,251)"/>
<path d="M0 0 C0 0.66 0 1.32 0 2 C-1.0725 2.226875 -2.145 2.45375 -3.25 2.6875 C-7.50767263 4.17768542 -8.86061631 5.06353401 -11 9 C-11.60961386 13.80070919 -11.46748092 15.99024121 -9.4375 20.375 C-6.48238568 23.55743081 -4.20952323 24.1904763 0 25 C0 25.66 0 26.32 0 27 C-5.63115388 29.99529462 -9.77764594 30.6464258 -16 29 C-20.99760244 26.54834597 -24.18617156 23.29033294 -26 18 C-26.83902191 13.56620318 -26.86447153 9.80836447 -24.89453125 5.6875 C-18.71392412 -3.32657582 -9.4523096 -5.1849012 0 0 Z " fill="#CEC681" transform="translate(230,101)"/>
<path d="M0 0 C1.32 0.66 2.64 1.32 4 2 C3.67 36.65 3.34 71.3 3 107 C2.34 106.67 1.68 106.34 1 106 C1.33 72.34 1.66 38.68 2 4 C-31.66 4 -65.32 4 -100 4 C-100 37.66 -100 71.32 -100 106 C-88.12 106 -76.24 106 -64 106 C-64 106.33 -64 106.66 -64 107 C-76.21 107 -88.42 107 -101 107 C-101.02254853 93.45735525 -101.04091364 79.91472287 -101.05181217 66.37206364 C-101.05704162 60.08437976 -101.06414039 53.79670934 -101.07543945 47.5090332 C-101.08626614 41.44662277 -101.09227637 35.38422531 -101.09487724 29.32180595 C-101.09673189 27.00323723 -101.10035325 24.68466926 -101.10573006 22.36610603 C-101.11293758 19.13085492 -101.11399106 15.89565817 -101.11352539 12.66040039 C-101.11712067 11.69151886 -101.12071594 10.72263733 -101.12442017 9.72439575 C-101.1230455 8.84794907 -101.12167084 7.97150238 -101.12025452 7.0684967 C-101.12117631 6.30248673 -101.1220981 5.53647676 -101.12304783 4.74725437 C-101 3 -101 3 -100 2 C-96.8949275 1.90466347 -93.81213542 1.87448874 -90.70678711 1.88647461 C-89.73128403 1.88632858 -88.75578094 1.88618256 -87.75071716 1.8860321 C-84.50957047 1.88673167 -81.26848046 1.89452609 -78.02734375 1.90234375 C-75.78674857 1.90420778 -73.54615298 1.90563175 -71.30555725 1.90663147 C-65.3954049 1.91045787 -59.48527695 1.9202892 -53.57513428 1.93133545 C-47.54944183 1.94154694 -41.52374547 1.94612853 -35.49804688 1.95117188 C-23.66535384 1.96191136 -11.83267894 1.97898924 0 2 C0 1.34 0 0.68 0 0 Z " fill="#070201" transform="translate(165,205)"/>
<path d="M0 0 C5.94 0 11.88 0 18 0 C18 5.94 18 11.88 18 18 C12.06 18 6.12 18 0 18 C0 12.06 0 6.12 0 0 Z " fill="#B1D7E3" transform="translate(138,220)"/>
<path d="M0 0 C5.94 0 11.88 0 18 0 C18 5.94 18 11.88 18 18 C12.06 18 6.12 18 0 18 C0 12.06 0 6.12 0 0 Z " fill="#B1D6E3" transform="translate(76,220)"/>
<path d="M0 0 C2.31 0 4.62 0 7 0 C8.98 3.96 10.96 7.92 13 12 C15.28459758 9.71540242 15.97129748 7.87462656 17.125 4.875 C17.47820313 3.96492188 17.83140625 3.05484375 18.1953125 2.1171875 C18.46085937 1.41851563 18.72640625 0.71984375 19 0 C21.97 0 24.94 0 28 0 C27.01 0.495 27.01 0.495 26 1 C26 7.93 26 14.86 26 22 C24.02 22 22.04 22 20 22 C19.67 16.72 19.34 11.44 19 6 C16.69 11.28 14.38 16.56 12 22 C8.90064194 18.90064194 7.90799735 16.82280415 6.3125 12.8125 C5.65701172 11.18248047 5.65701172 11.18248047 4.98828125 9.51953125 C4.66214844 8.68808594 4.33601563 7.85664063 4 7 C3.97307516 9.29160319 3.95363876 11.58329546 3.9375 13.875 C3.92589844 15.15117188 3.91429687 16.42734375 3.90234375 17.7421875 C3.76823431 20.88664652 3.76823431 20.88664652 5 23 C2.69 23 0.38 23 -2 23 C-1.67 22.34 -1.34 21.68 -1 21 C-0.34 21 0.32 21 1 21 C0.67 14.07 0.34 7.14 0 0 Z " fill="#2D2D2D" transform="translate(15,21)"/>
<path d="M0 0 C2.64 0 5.28 0 8 0 C7.67 3.3 7.34 6.6 7 10 C9.31 10 11.62 10 14 10 C14 7.03 14 4.06 14 1 C13.34 0.67 12.68 0.34 12 0 C15.63 0 19.26 0 23 0 C22.01 0.33 21.02 0.66 20 1 C20 7.93 20 14.86 20 22 C18.02 22 16.04 22 14 22 C14 18.7 14 15.4 14 12 C11.69 12 9.38 12 7 12 C7 15.3 7 18.6 7 22 C5.02 22 3.04 22 1 22 C0.67 14.74 0.34 7.48 0 0 Z " fill="#333333" transform="translate(71,21)"/>
<path d="M0 0 C9.9 0 19.8 0 30 0 C30 2.97 30 5.94 30 9 C20.1 9 10.2 9 0 9 C0 6.03 0 3.06 0 0 Z " fill="#A7A7A7" transform="translate(101,302)"/>
<path d="M0 0 C0 1.98 0 3.96 0 6 C-1.0209375 5.01 -1.0209375 5.01 -2.0625 4 C-5.6868294 1.53237147 -7.697683 1.43176945 -12 2 C-14.31861878 5.47792817 -14.24272927 6.90299252 -14.1875 11 C-14.18105469 12.051875 -14.17460937 13.10375 -14.16796875 14.1875 C-14.11707549 17.08062122 -14.11707549 17.08062122 -13 20 C-10.69 20.33 -8.38 20.66 -6 21 C-5.83318891 18.08347826 -5.83318891 18.08347826 -6 15 C-6.66 14.34 -7.32 13.68 -8 13 C-4.37 13 -0.74 13 3 13 C2.34 13.66 1.68 14.32 1 15 C0.59952556 17.32275177 0.2602896 19.65739357 0 22 C-4.63386639 23.54462213 -9.16597554 23.63442261 -14 23 C-17.17739189 21.35291871 -19.37781742 19.24436516 -21 16 C-21.59150529 11.83700074 -22.07761681 7.70850006 -19.765625 4.04296875 C-13.86707214 -1.95778676 -7.94503345 -1.5133397 0 0 Z " fill="#131313" transform="translate(315,21)"/>
<path d="M0 0 C1.9375 0.8125 1.9375 0.8125 4 2 C4.33 2.99 4.66 3.98 5 5 C7.31 5 9.62 5 12 5 C11.484375 5.70125 10.96875 6.4025 10.4375 7.125 C8.68125702 10.63748596 9.21495566 12.2463443 10 16 C9.11957031 15.91621094 8.23914063 15.83242187 7.33203125 15.74609375 C5.58986328 15.59333984 5.58986328 15.59333984 3.8125 15.4375 C2.66394531 15.33308594 1.51539063 15.22867188 0.33203125 15.12109375 C-2.68631199 15.01140015 -5.08923936 15.25997611 -8 16 C-7.773125 15.113125 -7.54625 14.22625 -7.3125 13.3125 C-6.94548054 9.42209376 -7.73118159 8.08559304 -10 5 C-8.906875 4.9175 -7.81375 4.835 -6.6875 4.75 C-2.96723336 4.36310791 -2.96723336 4.36310791 -1.0625 1.9375 C-0.711875 1.298125 -0.36125 0.65875 0 0 Z " fill="#C9AC1E" transform="translate(188,104)"/>
<path d="M0 0 C2.375 1.5625 2.375 1.5625 4 4 C4.59677999 8.10286241 4.38925759 10.26819573 2.4375 13.9375 C0 16 0 16 -3.5625 16.5625 C-7 16 -7 16 -8.9375 14.5 C-10.45171582 10.93713925 -10.6948487 7.80995693 -10 4 C-7.31163109 -0.13595217 -4.79825109 -0.79970851 0 0 Z " fill="#171717" transform="translate(106,28)"/>
<path d="M0 0 C7.26 0 14.52 0 22 0 C22 7.59 22 15.18 22 23 C14.74 23 7.48 23 0 23 C0 15.41 0 7.82 0 0 Z M2 3 C2 8.94 2 14.88 2 21 C7.94 21 13.88 21 20 21 C20 15.06 20 9.12 20 3 C14.06 3 8.12 3 2 3 Z " fill="#1E2120" transform="translate(136,217)"/>
<path d="M0 0 C2 1 2 1 3 3 C3.51981506 6.56444611 3.63102777 9.73794446 2 13 C-1.27455496 14.63727748 -4.48518265 14.75671118 -8 14 C-10.76386182 11.5816209 -11.79835577 10.03342666 -12.5 6.4375 C-11.05833215 -0.59063079 -6.06901126 -0.67433458 0 0 Z " fill="#F4D01F" transform="translate(120,175)"/>
<path d="M0 0 C1.33804687 0.17982422 1.33804687 0.17982422 2.703125 0.36328125 C3.37859375 0.47027344 4.0540625 0.57726562 4.75 0.6875 C4.75 2.9975 4.75 5.3075 4.75 7.6875 C4.028125 6.8625 3.30625 6.0375 2.5625 5.1875 C0.02082634 2.44342194 0.02082634 2.44342194 -3.0625 2.375 C-3.784375 2.478125 -4.50625 2.58125 -5.25 2.6875 C-4.90305208 5.54362484 -4.48345399 6.49579836 -2.21875 8.35546875 C-0.99671875 9.10763672 -0.99671875 9.10763672 0.25 9.875 C1.0646875 10.38417969 1.879375 10.89335937 2.71875 11.41796875 C3.3890625 11.83691406 4.059375 12.25585938 4.75 12.6875 C5.75 13.6875 5.75 13.6875 6.0625 16.5 C5.75 19.6875 5.75 19.6875 4.12109375 21.87109375 C1.05636586 24.21886717 -0.68761034 24.10325607 -4.5 23.9375 C-5.57765625 23.90140625 -6.6553125 23.8653125 -7.765625 23.828125 C-8.99539062 23.75851563 -8.99539062 23.75851563 -10.25 23.6875 C-10.25 21.0475 -10.25 18.4075 -10.25 15.6875 C-9.59 15.6875 -8.93 15.6875 -8.25 15.6875 C-7.940625 16.8940625 -7.940625 16.8940625 -7.625 18.125 C-7.17125 18.970625 -6.7175 19.81625 -6.25 20.6875 C-3.47841653 21.43813719 -1.10785481 21.6875 1.75 21.6875 C1.87213894 19.34601769 1.87213894 19.34601769 0.75 16.6875 C-1.19355321 15.18391598 -3.19441399 13.99614774 -5.33984375 12.80078125 C-7.25 11.6875 -7.25 11.6875 -9.25 9.6875 C-9.625 6.25 -9.625 6.25 -9.25 2.6875 C-6.22455222 -0.42160071 -4.19359475 -0.60696766 0 0 Z " fill="#121212" transform="translate(261.25,20.3125)"/>
<path d="M0 0 C1.1653125 -0.00128906 2.330625 -0.00257813 3.53125 -0.00390625 C4.7584375 -0.00003906 5.985625 0.00382812 7.25 0.0078125 C9.09078125 0.00201172 9.09078125 0.00201172 10.96875 -0.00390625 C12.71671875 -0.00197266 12.71671875 -0.00197266 14.5 0 C15.57765625 0.00112793 16.6553125 0.00225586 17.765625 0.00341797 C20.25 0.1328125 20.25 0.1328125 21.25 1.1328125 C21.25 2.7828125 21.25 4.4328125 21.25 6.1328125 C12.01 6.1328125 2.77 6.1328125 -6.75 6.1328125 C-6.75 -0.76378761 -6.22197987 0.00651224 0 0 Z " fill="#656565" transform="translate(108.75,311.8671875)"/>
<path d="M0 0 C3.26294757 1.08764919 3.62169918 1.48851217 5.4609375 4.18359375 C5.92580566 4.85479248 6.39067383 5.52599121 6.86962891 6.2175293 C7.36640137 6.95011963 7.86317383 7.68270996 8.375 8.4375 C9.45209968 9.995501 10.53026036 11.55276893 11.609375 13.109375 C12.16689453 13.91697266 12.72441406 14.72457031 13.29882812 15.55664062 C16.02365468 19.47025488 18.82352803 23.3285628 21.625 27.1875 C25.53914685 32.59128583 29.44057884 38.0033704 33.3125 43.4375 C37.50405804 49.31939354 41.73914465 55.16810301 46 61 C45.01 61.33 44.02 61.66 43 62 C42.20442708 60.8984375 41.40885417 59.796875 40.61328125 58.6953125 C40.09330566 57.97537109 39.57333008 57.25542969 39.03759766 56.51367188 C37.87441691 54.90306326 36.71133308 53.29238465 35.54833984 51.68164062 C32.53054935 47.50228855 29.51133588 43.3239838 26.48828125 39.1484375 C16.38604546 25.18956567 16.38604546 25.18956567 11.765625 18.515625 C10.31503096 16.44884942 8.84430515 14.40141576 7.359375 12.359375 C6.89748779 11.72161133 6.43560059 11.08384766 5.9597168 10.42675781 C5.04318755 9.1628667 4.12289691 7.90169288 3.19848633 6.64355469 C0 2.22319564 0 2.22319564 0 0 Z " fill="#251C1C" transform="translate(121,143)"/>
<path d="M0 0 C2.5625 0.1875 2.5625 0.1875 4.5625 2.1875 C4.7578125 5.2265625 4.7578125 5.2265625 4.6875 8.8125 C4.66945312 10.00101563 4.65140625 11.18953125 4.6328125 12.4140625 C4.60960937 13.32929687 4.58640625 14.24453125 4.5625 15.1875 C2.9125 15.1875 1.2625 15.1875 -0.4375 15.1875 C-0.7675 11.2275 -1.0975 7.2675 -1.4375 3.1875 C-2.4275 3.6825 -2.4275 3.6825 -3.4375 4.1875 C-3.9058265 6.77355332 -3.9058265 6.77355332 -4.0625 9.75 C-4.17464844 11.26787109 -4.17464844 11.26787109 -4.2890625 12.81640625 C-4.33804688 13.59886719 -4.38703125 14.38132812 -4.4375 15.1875 C-6.0875 15.1875 -7.7375 15.1875 -9.4375 15.1875 C-9.4375 10.5675 -9.4375 5.9475 -9.4375 1.1875 C-7.4575 1.1875 -5.4775 1.1875 -3.4375 1.1875 C-2.4375 0.1875 -2.4375 0.1875 0 0 Z " fill="#202020" transform="translate(218.4375,27.8125)"/>
<path d="M0 0 C2.64 0 5.28 0 8 0 C8.28875 1.0725 8.5775 2.145 8.875 3.25 C9.82865883 6.81795 9.82865883 6.81795 11.125 9.25 C12 11 12 11 12 14 C15.18315856 12.40842072 15.85642677 9.19527816 17 6 C17.69140522 3.22111387 17.69140522 3.22111387 18 1 C17.34 0.67 16.68 0.34 16 0 C18.31 0 20.62 0 23 0 C22.67 0.66 22.34 1.32 22 2 C21.34 2 20.68 2 20 2 C19.90847656 2.65355469 19.81695312 3.30710937 19.72265625 3.98046875 C18.76308939 7.98990219 17.12924389 11.56386353 15.4375 15.3125 C15.10814453 16.05306641 14.77878906 16.79363281 14.43945312 17.55664062 C13.63082877 19.37311562 12.81602884 21.18683931 12 23 C11.34 23 10.68 23 10 23 C9.60167969 21.98679687 9.20335937 20.97359375 8.79296875 19.9296875 C8.25795321 18.57806929 7.72278904 17.22650991 7.1875 15.875 C6.79594727 14.87726562 6.79594727 14.87726562 6.39648438 13.859375 C4.78329953 9.79653909 3.012407 5.88642497 1 2 C0.67 1.34 0.34 0.68 0 0 Z " fill="#151515" transform="translate(269,21)"/>
<path d="M0 0 C1.8125 1.1875 1.8125 1.1875 3 3 C3.1875 5.6875 3.1875 5.6875 3 8 C0.36 8 -2.28 8 -5 8 C-4.34 9.32 -3.68 10.64 -3 12 C-1.02 12 0.96 12 3 12 C2 15 2 15 0 16 C-5.29577465 16.56338028 -5.29577465 16.56338028 -7.875 14.5 C-9.47312058 10.94862094 -9.70617835 7.82905595 -9 4 C-6.50225714 0.2996402 -4.42992476 -0.7951147 0 0 Z " fill="#2B2B2B" transform="translate(153,28)"/>
<path d="M0 0 C1.09054688 0.02320312 2.18109375 0.04640625 3.3046875 0.0703125 C4.40039062 0.08835937 5.49609375 0.10640625 6.625 0.125 C7.46804687 0.14820312 8.31109375 0.17140625 9.1796875 0.1953125 C9.1796875 0.8553125 9.1796875 1.5153125 9.1796875 2.1953125 C8.1896875 2.6903125 8.1896875 2.6903125 7.1796875 3.1953125 C7.3034375 4.34 7.3034375 4.34 7.4296875 5.5078125 C7.1796875 8.1953125 7.1796875 8.1953125 5.6171875 10.0703125 C2.12929212 11.68011037 -0.16002153 11.14427683 -3.8203125 10.1953125 C-5.8203125 7.1953125 -5.8203125 7.1953125 -5.5703125 4.6328125 C-4.49124142 1.12583149 -3.70061593 0.25627534 0 0 Z " fill="#282828" transform="translate(231.8203125,27.8046875)"/>
<path d="M0 0 C0.66 0 1.32 0 2 0 C2 0.99 2 1.98 2 3 C4.97851562 2.90234375 4.97851562 2.90234375 7.95703125 2.8046875 C10 3 10 3 13 5 C12.75 7.375 12.75 7.375 12 10 C8.94633476 12.07212998 6.83967706 12.15289369 3.25 11.625 C2.45078125 11.51414062 1.6515625 11.40328125 0.828125 11.2890625 C-0.07679688 11.14597656 -0.07679688 11.14597656 -1 11 C-1.33 9.68 -1.66 8.36 -2 7 C-1.34 7 -0.68 7 0 7 C-0.185625 6.030625 -0.37125 5.06125 -0.5625 4.0625 C-0.706875 3.051875 -0.85125 2.04125 -1 1 C-0.67 0.67 -0.34 0.34 0 0 Z " fill="#141414" transform="translate(228,39)"/>
<path d="M0 0 C0.33 0 0.66 0 1 0 C1 6.93 1 13.86 1 21 C1.66 21.33 2.32 21.66 3 22 C-4.92 22 -12.84 22 -21 22 C-20.34 21.34 -19.68 20.68 -19 20 C-15.875 20.375 -15.875 20.375 -13 21 C-13 17.7 -13 14.4 -13 11 C-10.69 11 -8.38 11 -6 11 C-6 14.3 -6 17.6 -6 21 C-4.02 21 -2.04 21 0 21 C0 14.07 0 7.14 0 0 Z " fill="#DDDDDD" transform="translate(91,22)"/>
<path d="M0 0 C1.65 0 3.3 0 5 0 C3.16631417 4.62125872 1.27047535 9.21635753 -0.625 13.8125 C-0.94984375 14.60076172 -1.2746875 15.38902344 -1.609375 16.20117188 C-2.40602065 18.13420912 -3.20297899 20.06711749 -4 22 C-5.98 22 -7.96 22 -10 22 C-10 20.68 -10 19.36 -10 18 C-8.35 18.33 -6.7 18.66 -5 19 C-4.22998243 12.0698419 -6.9101944 7.10236607 -10 1 C-8.02 1 -6.04 1 -4 1 C-2.74335022 3.90600261 -2 5.79604584 -2 9 C-1.34 9 -0.68 9 0 9 C1.04214691 4.38492226 1.04214691 4.38492226 0 0 Z " fill="#111111" transform="translate(55,28)"/>
<path d="M0 0 C7.59 0 15.18 0 23 0 C23 7.26 23 14.52 23 22 C22.67 22 22.34 22 22 22 C22 15.4 22 8.8 22 2 C15.4 2 8.8 2 2 2 C2 8.6 2 15.2 2 22 C1.34 22.33 0.68 22.66 0 23 C0 15.41 0 7.82 0 0 Z " fill="#130902" transform="translate(73,217)"/>
<path d="M0 0 C1.65 0 3.3 0 5 0 C5 6.93 5 13.86 5 21 C3.02 21 1.04 21 -1 21 C-0.67 14.07 -0.34 7.14 0 0 Z " fill="#080808" transform="translate(86,22)"/>
<path d="M0 0 C1.670625 0.061875 1.670625 0.061875 3.375 0.125 C3.045 1.445 2.715 2.765 2.375 4.125 C1.055 3.465 -0.265 2.805 -1.625 2.125 C-1.625 2.785 -1.625 3.445 -1.625 4.125 C-0.635 4.7025 0.355 5.28 1.375 5.875 C4.375 8.125 4.375 8.125 4.875 11.25 C4.375 14.125 4.375 14.125 2.375 16.125 C-0.31339385 16.39491906 -2.91641936 16.21237357 -5.625 16.125 C-5.625 14.475 -5.625 12.825 -5.625 11.125 C-2.655 13.105 -2.655 13.105 0.375 15.125 C0.24465506 13.25446603 0.24465506 13.25446603 -0.625 11.125 C-1.470625 10.485625 -2.31625 9.84625 -3.1875 9.1875 C-5.625 7.125 -5.625 7.125 -6.0625 4.5 C-5.30528599 0.38940963 -4.08987986 0.14103034 0 0 Z " fill="#202020" transform="translate(136.625,27.875)"/>
<path d="M0 0 C3.625 0.375 3.625 0.375 7 1 C6.67 1.99 6.34 2.98 6 4 C4.68 3.34 3.36 2.68 2 2 C2 2.66 2 3.32 2 4 C2.99 4.5775 3.98 5.155 5 5.75 C8 8 8 8 8.5 11.125 C8 14 8 14 6 16 C3.31160615 16.26991906 0.70858064 16.08737357 -2 16 C-2 14.35 -2 12.7 -2 11 C0.97 12.98 0.97 12.98 4 15 C3.86965506 13.12946603 3.86965506 13.12946603 3 11 C2.154375 10.360625 1.30875 9.72125 0.4375 9.0625 C-2 7 -2 7 -2.4375 4.375 C-2 2 -2 2 0 0 Z " fill="#1F1F1F" transform="translate(188,28)"/>
<path d="M0 0 C1.65 0 3.3 0 5 0 C5.33 6.93 5.66 13.86 6 21 C4.02 21 2.04 21 0 21 C0 14.07 0 7.14 0 0 Z " fill="#010101" transform="translate(35,22)"/>
<path d="M0 0 C3.96 0 7.92 0 12 0 C12 0.66 12 1.32 12 2 C13.32 2 14.64 2 16 2 C16 4.97 16 7.94 16 11 C13.69 11 11.38 11 9 11 C9 8.03 9 5.06 9 2 C6.03 2 3.06 2 0 2 C0 1.34 0 0.68 0 0 Z " fill="#FDFDFD" transform="translate(69,20)"/>
<path d="M0 0 C1.98 0 3.96 0 6 0 C6 4.95 6 9.9 6 15 C4.35 15 2.7 15 1 15 C-0.44207941 12.11584117 -0.09394887 9.58278472 -0.0625 6.375 C-0.05347656 5.18648437 -0.04445312 3.99796875 -0.03515625 2.7734375 C-0.02355469 1.85820312 -0.01195312 0.94296875 0 0 Z " fill="#222222" transform="translate(176,28)"/>
<path d="M0 0 C1.65 0 3.3 0 5 0 C5.04898438 0.84304687 5.09796875 1.68609375 5.1484375 2.5546875 C5.22320312 3.65039062 5.29796875 4.74609375 5.375 5.875 C5.44460937 6.96554688 5.51421875 8.05609375 5.5859375 9.1796875 C5.73253491 12.13046474 5.73253491 12.13046474 8 14 C7 15 7 15 4.5625 15.1875 C2 15 2 15 0 13 C-0.1953125 9.9609375 -0.1953125 9.9609375 -0.125 6.375 C-0.10695312 5.18648437 -0.08890625 3.99796875 -0.0703125 2.7734375 C-0.04710937 1.85820312 -0.02390625 0.94296875 0 0 Z " fill="#0E0E0E" transform="translate(168,29)"/>
<path d="M0 0 C1.98 0 3.96 0 6 0 C6 4.95 6 9.9 6 15 C3.03 14.505 3.03 14.505 0 14 C0 9.38 0 4.76 0 0 Z " fill="#1D1D1D" transform="translate(121,28)"/>
<path d="M0 0 C8.25 0 16.5 0 25 0 C25 0.99 25 1.98 25 3 C16.75 3 8.5 3 0 3 C0 2.01 0 1.02 0 0 Z " fill="#A8A8A8" transform="translate(103,313)"/>
<path d="M0 0 C1.65 0 3.3 0 5 0 C5 4.62 5 9.24 5 14 C3.35 14 1.7 14 0 14 C0 9.38 0 4.76 0 0 Z " fill="#161616" transform="translate(209,29)"/>
<path d="M0 0 C3.63 0 7.26 0 11 0 C10.34 0.66 9.68 1.32 9 2 C8.59952556 4.32275177 8.2602896 6.65739357 8 9 C4.85069107 10.04976964 2.61185544 10.10131595 -0.6875 10.0625 C-1.68136719 10.05347656 -2.67523438 10.04445313 -3.69921875 10.03515625 C-4.83810547 10.01775391 -4.83810547 10.01775391 -6 10 C-2.77208445 7.8480563 -1.71599191 7.79913557 2 8 C2.16681109 5.08347826 2.16681109 5.08347826 2 2 C1.34 1.34 0.68 0.68 0 0 Z " fill="#1E1E1E" transform="translate(307,34)"/>
<path d="M0 0 C0.66 0.33 1.32 0.66 2 1 C2 4.96 2 8.92 2 13 C3.98 12.67 5.96 12.34 8 12 C8 12.66 8 13.32 8 14 C2.72 14 -2.56 14 -8 14 C-7.67 13.34 -7.34 12.68 -7 12 C-5.35 12.33 -3.7 12.66 -2 13 C-2.02320313 12.22914062 -2.04640625 11.45828125 -2.0703125 10.6640625 C-2.08835938 9.66117188 -2.10640625 8.65828125 -2.125 7.625 C-2.14820313 6.62726562 -2.17140625 5.62953125 -2.1953125 4.6015625 C-2 2 -2 2 0 0 Z " fill="#C9C9C9" transform="translate(216,30)"/>
<path d="M0 0 C1.65 0 3.3 0 5 0 C5.04898438 0.84304687 5.09796875 1.68609375 5.1484375 2.5546875 C5.22320312 3.65039062 5.29796875 4.74609375 5.375 5.875 C5.44460937 6.96554688 5.51421875 8.05609375 5.5859375 9.1796875 C5.73253491 12.13046474 5.73253491 12.13046474 8 14 C5.625 14.625 5.625 14.625 3 15 C0.22957891 12.22957891 0.60203894 10.23466195 0.375 6.375 C0.30023438 5.18648437 0.22546875 3.99796875 0.1484375 2.7734375 C0.09945312 1.85820312 0.05046875 0.94296875 0 0 Z " fill="#080808" transform="translate(113,29)"/>
<path d="M0 0 C1.32 0 2.64 0 4 0 C4.33 4.62 4.66 9.24 5 14 C3.35 14 1.7 14 0 14 C0 9.38 0 4.76 0 0 Z " fill="#020202" transform="translate(200,29)"/>
<path d="M0 0 C4.6905528 1.5635176 6.48803846 5.42565313 9.25 9.375 C9.8171875 10.15617188 10.384375 10.93734375 10.96875 11.7421875 C11.49984375 12.495 12.0309375 13.2478125 12.578125 14.0234375 C13.06700195 14.71356934 13.55587891 15.40370117 14.05957031 16.11474609 C15 18 15 18 14 21 C10.76914765 17.03692177 7.73333921 12.96229015 4.75 8.8125 C4.29109375 8.18408203 3.8321875 7.55566406 3.359375 6.90820312 C0 2.23407273 0 2.23407273 0 0 Z " fill="#201313" transform="translate(121,143)"/>
<path d="M0 0 C0.99 0.33 1.98 0.66 3 1 C3 4.96 3 8.92 3 13 C1.68 13 0.36 13 -1 13 C-1.02686553 11.02090602 -1.04633375 9.04171029 -1.0625 7.0625 C-1.07410156 5.96035156 -1.08570312 4.85820313 -1.09765625 3.72265625 C-1 1 -1 1 0 0 Z " fill="#F3F3F3" transform="translate(102,29)"/>
<path d="M0 0 C0 1.98 0 3.96 0 6 C-1.0209375 5.01 -1.0209375 5.01 -2.0625 4 C-5.70295227 1.5213942 -7.67648012 1.43954372 -12 2 C-13.81476003 3.39585785 -13.81476003 3.39585785 -15 5 C-15.66 5 -16.32 5 -17 5 C-18.38232443 6.62626404 -19.71937515 8.2925002 -21 10 C-20.58565093 5.16592748 -18.62206046 3.10462326 -15 0 C-9.89539022 -1.70153659 -5.21460153 -0.99325743 0 0 Z " fill="#212121" transform="translate(315,21)"/>
<path d="M0 0 C3 3 3 3 3.2578125 6.72265625 C3.22863381 8.16965392 3.18381559 9.61640374 3.125 11.0625 C2.72602595 16.18074915 2.72602595 16.18074915 4 21 C1.69 21 -0.62 21 -3 21 C-2.67 20.34 -2.34 19.68 -2 19 C-1.34 19 -0.68 19 0 19 C0 12.73 0 6.46 0 0 Z " fill="#5D5D5D" transform="translate(16,23)"/>
<path d="M0 0 C2 2 2 2 2.1953125 4.6015625 C2.17210937 5.59929688 2.14890625 6.59703125 2.125 7.625 C2.10695312 8.62789062 2.08890625 9.63078125 2.0703125 10.6640625 C2.03550781 11.82035156 2.03550781 11.82035156 2 13 C0.68 13 -0.64 13 -2 13 C-2 9.04 -2 5.08 -2 1 C-1.34 0.67 -0.68 0.34 0 0 Z " fill="#E4E4E4" transform="translate(175,28)"/>
<path d="M0 0 C1.32 0.33 2.64 0.66 4 1 C4 4.63 4 8.26 4 12 C2.68 12 1.36 12 0 12 C0 8.04 0 4.08 0 0 Z " fill="#E5E5E5" transform="translate(118,29)"/>
<path d="M0 0 C0.99 0 1.98 0 3 0 C3 3.96 3 7.92 3 12 C2.01 12 1.02 12 0 12 C-1.12256131 9.75487738 -1.13413762 8.48543351 -1.125 6 C-1.12886719 4.948125 -1.12886719 4.948125 -1.1328125 3.875 C-1 2 -1 2 0 0 Z " fill="#0B0B0B" transform="translate(97,30)"/>
<path d="M0 0 C1.41623216 -0.05447047 2.83308191 -0.09300508 4.25 -0.125 C5.03890625 -0.14820312 5.8278125 -0.17140625 6.640625 -0.1953125 C9.20731941 0.0171622 10.7916067 0.71345895 13 2 C12.34 4.31 11.68 6.62 11 9 C10.34 9 9.68 9 9 9 C7.74335022 6.09399739 7 4.20395416 7 1 C4.69 1.33 2.38 1.66 0 2 C0 1.34 0 0.68 0 0 Z " fill="#D5D5D5" transform="translate(44,28)"/>
<path d="M0 0 C0.66 0 1.32 0 2 0 C0.59601721 4.10110762 -1.37087038 6.98089159 -4.125 10.3125 C-4.84945312 11.19550781 -5.57390625 12.07851562 -6.3203125 12.98828125 C-7.15175781 13.98408203 -7.15175781 13.98408203 -8 15 C-8.33 14.01 -8.66 13.02 -9 12 C-7.63771358 9.79256409 -6.27749316 7.84243112 -4.6875 5.8125 C-4.27048828 5.25369141 -3.85347656 4.69488281 -3.42382812 4.11914062 C-2.33849619 2.70145825 -1.17409054 1.34509484 0 0 Z " fill="#201213" transform="translate(99,157)"/>
<path d="M0 0 C-0.33 1.98 -0.66 3.96 -1 6 C-3.66666667 6 -6.33333333 6 -9 6 C-7.01260984 0.46369883 -5.82303895 -0.15323787 0 0 Z " fill="#2D2D2D" transform="translate(153,28)"/>
<path d="M0 0 C2.31 0 4.62 0 7 0 C6.67 0.66 6.34 1.32 6 2 C5.34 2 4.68 2 4 2 C3.9175 2.639375 3.835 3.27875 3.75 3.9375 C2.70479628 8.20541517 0.85908174 12.03107667 -1 16 C-1.99 15.67 -2.98 15.34 -4 15 C-3.566875 14.360625 -3.13375 13.72125 -2.6875 13.0625 C-0.55513524 9.19265285 0.70640794 5.21105502 2 1 C1.34 0.67 0.68 0.34 0 0 Z " fill="#545454" transform="translate(285,21)"/>
<path d="M0 0 C0.66 0 1.32 0 2 0 C2.20625 0.804375 2.4125 1.60875 2.625 2.4375 C3.07875 3.283125 3.5325 4.12875 4 5 C6.88695186 5.84239972 6.88695186 5.84239972 10 6 C11.33737094 6.31674575 12.67288808 6.64270064 14 7 C11.23547967 8.38226016 8.9538637 8.09525387 5.875 8.0625 C4.77929688 8.05347656 3.68359375 8.04445313 2.5546875 8.03515625 C1.29011719 8.01775391 1.29011719 8.01775391 0 8 C0 5.36 0 2.72 0 0 Z " fill="#575757" transform="translate(251,36)"/>
<path d="M0 0 C-0.66 0.66 -1.32 1.32 -2 2 C-2.66 2 -3.32 2 -4 2 C-4 5.96 -4 9.92 -4 14 C-2.68 14.33 -1.36 14.66 0 15 C0 15.33 0 15.66 0 16 C-2.31 16 -4.62 16 -7 16 C-7.33 15.34 -7.66 14.68 -8 14 C-7.34 14 -6.68 14 -6 14 C-6 10.04 -6 6.08 -6 2 C-6.66 1.67 -7.32 1.34 -8 1 C-5.29120665 -0.35439668 -2.99066732 -0.06501451 0 0 Z " fill="#4A4A4A" transform="translate(106,28)"/>
<path d="M0 0 C0.99 0.33 1.98 0.66 3 1 C3 3.31 3 5.62 3 8 C1.68 8 0.36 8 -1 8 C-1.04241723 5.66705225 -1.04092937 3.33297433 -1 1 C-0.67 0.67 -0.34 0.34 0 0 Z " fill="#E9E9E9" transform="translate(232,29)"/>
<path d="M0 0 C0 0.99 0 1.98 0 3 C0.33 4.98 0.66 6.96 1 9 C-3.29 8.34 -7.58 7.68 -12 7 C-11.34 6.34 -10.68 5.68 -10 5 C-7.27130593 5.03287583 -4.7033382 5.56397771 -2 6 C-1.855625 5.195625 -1.71125 4.39125 -1.5625 3.5625 C-1 1 -1 1 0 0 Z " fill="#615A3C" transform="translate(197,111)"/>
<path d="M0 0 C0.66 0 1.32 0 2 0 C2.125 2.875 2.125 2.875 2 6 C1.34 6.66 0.68 7.32 0 8 C-1.65 6.68 -3.3 5.36 -5 4 C-4.67 3.01 -4.34 2.02 -4 1 C-2.68 1.66 -1.36 2.32 0 3 C0 2.01 0 1.02 0 0 Z " fill="#CACACA" transform="translate(194,28)"/>
<path d="M0 0 C0.33 0 0.66 0 1 0 C1.125 2.875 1.125 2.875 1 6 C0.34 6.66 -0.32 7.32 -1 8 C-2.65 6.68 -4.3 5.36 -6 4 C-5.67 3.01 -5.34 2.02 -5 1 C-3.68 1.66 -2.36 2.32 -1 3 C-0.67 2.01 -0.34 1.02 0 0 Z " fill="#CCCCCC" transform="translate(140,28)"/>
<path d="M0 0 C0.66 0.99 1.32 1.98 2 3 C1.34 4.32 0.68 5.64 0 7 C-1.98 7 -3.96 7 -6 7 C-6 5.68 -6 4.36 -6 3 C-3.525 3.495 -3.525 3.495 -1 4 C-0.67 2.68 -0.34 1.36 0 0 Z " fill="#464646" transform="translate(51,43)"/>
<path d="M0 0 C1.98 0 3.96 0 6 0 C5.34 0.66 4.68 1.32 4 2 C3.83312552 4.58354218 3.83312552 4.58354218 4 7 C3.01 7 2.02 7 1 7 C0.67 4.69 0.34 2.38 0 0 Z " fill="#060606" transform="translate(235,29)"/>
<path d="M0 0 C0.66 0 1.32 0 2 0 C3.5078125 1.96875 3.5078125 1.96875 5.125 4.5 C5.66382812 5.3353125 6.20265625 6.170625 6.7578125 7.03125 C7.16773437 7.6809375 7.57765625 8.330625 8 9 C6.078125 8.66015625 6.078125 8.66015625 4 8 C2.75 5.4375 2.75 5.4375 2 3 C1.01 3 0.02 3 -1 3 C-0.67 2.01 -0.34 1.02 0 0 Z " fill="#282323" transform="translate(115,134)"/>
<path d="M0 0 C2.97 0 5.94 0 9 0 C8.67 0.99 8.34 1.98 8 3 C5.69 3 3.38 3 1 3 C0.67 2.01 0.34 1.02 0 0 Z " fill="#EEEEEE" transform="translate(229,46)"/>
<path d="M0 0 C4.13574827 -0.0984702 7.93631321 0.22596442 12 1 C12 2.98 12 4.96 12 7 C11.319375 6.38125 10.63875 5.7625 9.9375 5.125 C6.54118766 2.6680932 4.03981179 1.95054395 0 1 C0 0.67 0 0.34 0 0 Z " fill="#444444" transform="translate(303,20)"/>
<path d="M0 0 C4.66154042 1.49835228 5.86610751 4.88463591 8 9 C7.01 9 6.02 9 5 9 C3.61328125 7.5390625 3.61328125 7.5390625 2.3125 5.625 C1.65701172 4.68527344 1.65701172 4.68527344 0.98828125 3.7265625 C0 2 0 2 0 0 Z " fill="#1F1313" transform="translate(148,181)"/>
<path d="M0 0 C3.3 0.33 6.6 0.66 10 1 C10 3.31 10 5.62 10 8 C9.278125 7.21625 8.55625 6.4325 7.8125 5.625 C5.16700959 3.15587562 3.39626389 2.06739722 0 1 C0 0.67 0 0.34 0 0 Z " fill="#545454" transform="translate(256,20)"/>
<path d="M0 0 C0.66 0.66 1.32 1.32 2 2 C-1.1749094 3.9078584 -3.10585211 4.1609041 -6.75 3.625 C-7.54921875 3.51414063 -8.3484375 3.40328125 -9.171875 3.2890625 C-9.77515625 3.19367187 -10.3784375 3.09828125 -11 3 C-7.34535987 0.56357324 -5.29831033 0.92040166 -1 1 C-0.67 0.67 -0.34 0.34 0 0 Z " fill="#636363" transform="translate(238,47)"/>
<path d="M0 0 C0.33 0 0.66 0 1 0 C1 1.65 1 3.3 1 5 C2.32 5.33 3.64 5.66 5 6 C1.85069107 7.04976964 -0.38814456 7.10131595 -3.6875 7.0625 C-4.68136719 7.05347656 -5.67523438 7.04445313 -6.69921875 7.03515625 C-7.83810547 7.01775391 -7.83810547 7.01775391 -9 7 C-5.77208445 4.8480563 -4.71599191 4.79913557 -1 5 C-0.67 3.35 -0.34 1.7 0 0 Z " fill="#323232" transform="translate(310,37)"/>
<path d="M0 0 C2.95929119 2.75520215 5.03681826 5.46627288 7 9 C4.28902773 8.62607279 3.17999533 8.18642373 1.25 6.1875 C0 4 0 4 0 0 Z " fill="#2B2121" transform="translate(143,172)"/>
<path d="M0 0 C1.65 0 3.3 0 5 0 C3.66666667 3.33333333 2.33333333 6.66666667 1 10 C0.34 9.67 -0.32 9.34 -1 9 C-0.4740625 7.329375 -0.4740625 7.329375 0.0625 5.625 C1.37239331 2.19735524 1.37239331 2.19735524 0 0 Z " fill="#676767" transform="translate(55,28)"/>
<path d="M0 0 C3.96 0 7.92 0 12 0 C11.67 1.32 11.34 2.64 11 4 C10.01 4.495 10.01 4.495 9 5 C9 4.01 9 3.02 9 2 C6.03 2 3.06 2 0 2 C0 1.34 0 0.68 0 0 Z " fill="#E0E0E0" transform="translate(69,20)"/>
<path d="M0 0 C1.98 0.99 1.98 0.99 4 2 C4 3.32 4 4.64 4 6 C2.68 6 1.36 6 0 6 C0 4.02 0 2.04 0 0 Z " fill="#1B1B1B" transform="translate(152,29)"/>
<path d="M0 0 C0.66 0.99 1.32 1.98 2 3 C0.68 4.65 -0.64 6.3 -2 8 C-2.99 7.67 -3.98 7.34 -5 7 C-3.35 4.69 -1.7 2.38 0 0 Z " fill="#2F2323" transform="translate(89,170)"/>
<path d="M0 0 C0.66 0 1.32 0 2 0 C2.12375 0.94875 2.2475 1.8975 2.375 2.875 C2.71687177 6.08667191 2.71687177 6.08667191 5 8 C3.35 8.33 1.7 8.66 0 9 C0.185625 8.071875 0.37125 7.14375 0.5625 6.1875 C1.24123881 2.98656229 1.24123881 2.98656229 0 0 Z " fill="#5C5637" transform="translate(180,111)"/>
<path d="M0 0 C0.99 0.33 1.98 0.66 3 1 C3 2.32 3 3.64 3 5 C1.68 5 0.36 5 -1 5 C-0.67 3.35 -0.34 1.7 0 0 Z " fill="#EDEDED" transform="translate(149,29)"/>
</svg>
